<?xml version="1.0" encoding="UTF-8"?>
<svg version="1.1" xmlns="http://www.w3.org/2000/svg" width="268" height="268">
<path d="M0 0 C2.4375 0.375 2.4375 0.375 4.4375 2.375 C4.8125 5.3125 4.8125 5.3125 4.4375 8.375 C2.4140625 10.06640625 2.4140625 10.06640625 0.4375 11.375 C0.81261719 11.87128906 1.18773437 12.36757812 1.57421875 12.87890625 C2.08597656 13.55824219 2.59773438 14.23757812 3.125 14.9375 C3.94677734 16.02611328 3.94677734 16.02611328 4.78515625 17.13671875 C6.26617149 19.1429167 7.66659951 21.18441516 9.0625 23.25 C11.17514277 26.02979311 12.19865916 27.29538639 15.4375 28.375 C15.458125 27.611875 15.47875 26.84875 15.5 26.0625 C15.809375 25.175625 16.11875 24.28875 16.4375 23.375 C18.1269846 22.71245702 19.81969845 22.05637677 21.53125 21.453125 C24.73577023 19.64073241 26.17520343 16.65274623 27.98046875 13.53125 C29.57368502 11.17346078 31.00942005 9.84599212 33.4375 8.375 C34.4275 8.375 35.4175 8.375 36.4375 8.375 C36.39625 7.42625 36.355 6.4775 36.3125 5.5 C36.4375 2.375 36.4375 2.375 38.4375 0.375 C42.0625 0.75 42.0625 0.75 45.4375 1.375 C46.5625 7 46.5625 7 45.4375 10.375 C46.13875 10.99375 46.84 11.6125 47.5625 12.25 C51.37685748 16.02063991 53.81841766 20.73985428 56.4375 25.375 C56.88222656 24.88386719 57.32695313 24.39273438 57.78515625 23.88671875 C59.4375 22.375 59.4375 22.375 61.875 22.1875 C63.1434375 22.2803125 63.1434375 22.2803125 64.4375 22.375 C65.7575 22.375 67.0775 22.375 68.4375 22.375 C70.10810177 20.30146181 70.10810177 20.30146181 71.4375 17.625 C73.00002323 14.72074486 74.28612692 12.52316942 76.65234375 10.20703125 C77.24144531 9.60246094 77.83054687 8.99789062 78.4375 8.375 C78.15145102 6.69957024 77.81968767 5.03114657 77.4375 3.375 C78.5625 1.5625 78.5625 1.5625 80.4375 0.375 C83 0.0625 83 0.0625 85.4375 0.375 C87.4375 2.375 87.4375 2.375 87.6875 5.25 C88.11338837 8.60247349 88.11338837 8.60247349 91.125 10.125 C91.66640625 10.42535156 92.2078125 10.72570312 92.765625 11.03515625 C95.04987637 12.86575957 96.014893 14.98487786 97.375 17.5625 C99.21124863 21.09910178 99.21124863 21.09910178 102.37109375 23.24609375 C104.50328584 23.58063836 104.50328584 23.58063836 107.4375 23.375 C107.9325 25.355 107.9325 25.355 108.4375 27.375 C110.38749129 27.18028889 110.38749129 27.18028889 112.4375 26.375 C113.14424629 25.06247118 113.79934656 23.72221283 114.4375 22.375 C115.79745905 20.11386327 117.16912839 17.86522644 118.5625 15.625 C118.93503906 15.02300781 119.30757812 14.42101562 119.69140625 13.80078125 C120.60524724 12.32457657 121.52116598 10.84965846 122.4375 9.375 C121.4475 9.045 120.4575 8.715 119.4375 8.375 C119.3125 5.5 119.3125 5.5 119.4375 2.375 C121.4375 0.375 121.4375 0.375 123.875 0 C126.4375 0.375 126.4375 0.375 128.3125 2.125 C129.4375 4.375 129.4375 4.375 129.125 6.625 C128.898125 7.2025 128.67125 7.78 128.4375 8.375 C129.30375 8.2925 130.17 8.21 131.0625 8.125 C135.40740431 8.44684476 137.12396217 9.5549678 140.4375 12.375 C145.4375 19.01541995 145.4375 19.01541995 145.4375 22.375 C146.035625 22.643125 146.63375 22.91125 147.25 23.1875 C149.40974808 24.35993467 150.79540256 25.56869282 152.4375 27.375 C156.65501755 26.49508627 158.17694997 25.72026088 160.81640625 22.22265625 C161.56155615 20.97106819 162.28911623 19.70886357 163 18.4375 C165.53541194 13.9789849 167.57240386 10.51814525 172.4375 8.375 C175.75 8.1875 175.75 8.1875 178.4375 8.375 C178.4375 9.695 178.4375 11.015 178.4375 12.375 C177.53 12.766875 176.6225 13.15875 175.6875 13.5625 C171.28983823 16.01504214 169.02847547 18.60207358 167.4375 23.375 C168.0975 23.375 168.7575 23.375 169.4375 23.375 C170.75418238 28.7614279 170.75418238 28.7614279 169.4375 31.3125 C166.38702589 32.93306437 163.80886694 31.87241479 160.4375 31.375 C158.49676432 31.88404542 156.55608878 32.39495863 154.62890625 32.953125 C150.58629134 33.73138242 146.4328814 33.29586858 142.4375 32.375 C141.4475 31.385 141.4475 31.385 140.4375 30.375 C140.52 29.34375 140.6025 28.3125 140.6875 27.25 C140.32922625 21.69675686 137.30353574 18.24103574 133.4375 14.375 C130.60768409 13.78971223 130.60768409 13.78971223 127.4375 14.375 C124.83923222 16.61488602 122.97272416 19.30455169 121.4375 22.375 C122.200625 22.2925 122.96375 22.21 123.75 22.125 C126.4375 22.375 126.4375 22.375 128.375 24.0625 C129.4375 26.375 129.4375 26.375 128.6875 29.0625 C127.4375 31.375 127.4375 31.375 126.4375 32.375 C124 32.5625 124 32.5625 121.4375 32.375 C119.2989515 30.2364515 119.01094937 29.24224686 118.4375 26.375 C117.695 27.550625 117.695 27.550625 116.9375 28.75 C113.8012969 32.04301325 110.9847244 33.24330866 106.4375 33.375 C103.00133225 32.8779689 100.42844782 32.41642726 97.97094727 29.83374023 C96.58501111 27.89647284 95.34056565 25.92327598 94.125 23.875 C93.27631034 22.50943919 92.42611369 21.14481351 91.57421875 19.78125 C91.21030029 19.17603516 90.84638184 18.57082031 90.47143555 17.94726562 C89.40025514 16.2028971 89.40025514 16.2028971 87.4375 14.375 C84.52211971 13.87457854 84.52211971 13.87457854 81.4375 14.375 C77.33476765 17.85340351 74.94549353 22.24911083 72.21875 26.81640625 C69.7823236 30.31609769 67.68516288 31.98683822 63.625 33.25 C59.59878399 33.40789082 56.70982656 32.66043443 53.4375 30.375 C50.54032867 27.22495835 48.26909417 23.65387458 45.94140625 20.07421875 C43.04298302 15.61498546 43.04298302 15.61498546 38.3125 13.625 C33.95779751 14.76100935 32.09956281 17.25969126 29.83984375 21.06640625 C29.35644531 22.01386719 28.87304688 22.96132812 28.375 23.9375 C25.14315523 30.25545648 25.14315523 30.25545648 22.4375 32.375 C16.26987867 33.81411164 12.98548229 33.37091044 7.4375 30.375 C6.7775 29.715 6.1175 29.055 5.4375 28.375 C5.045625 29.035 4.65375 29.695 4.25 30.375 C2.4375 32.375 2.4375 32.375 -0.0625 32.875 C-2.5625 32.375 -2.5625 32.375 -4.5 30.6875 C-5.5625 28.375 -5.5625 28.375 -5 25.75 C-3.42045028 23.14030916 -2.38236541 22.40895065 0.4375 21.375 C-2.29402399 16.64736232 -4.49376149 14.44857484 -9.5625 12.375 C-9.5625 11.055 -9.5625 9.735 -9.5625 8.375 C-7.9125 8.375 -6.2625 8.375 -4.5625 8.375 C-4.9028125 7.50875 -4.9028125 7.50875 -5.25 6.625 C-5.5625 4.375 -5.5625 4.375 -4.4375 2.125 C-2.5625 0.375 -2.5625 0.375 0 0 Z " fill="#FE2474" transform="translate(30.5625,130.625)"/>
<path d="M0 0 C5.42275272 0.22133685 8.376876 1.41821702 12.3671875 5.11328125 C14.70548817 7.81519327 16.29085915 10.75143468 17.859375 13.94921875 C19.0472593 16.08496963 20.06548915 17.50493359 22 19 C25.57756686 19.00082535 25.57756686 19.00082535 29 18 C29.66 17.01 30.32 16.02 31 15 C28.525 14.505 28.525 14.505 26 14 C24.67721519 8.58860759 24.67721519 8.58860759 26.0625 6.0625 C28.96039451 4.47333204 30.90302504 5.12476795 34 6 C34.495 6.99 34.495 6.99 35 8 C35.40089844 7.50628906 35.80179688 7.01257813 36.21484375 6.50390625 C39.35103191 2.96947197 41.78036937 0.55818817 46.5625 -0.1875 C51.17749657 -0.32047448 53.5713087 0.79988812 57 4 C59.14826468 6.90841987 61.07110479 9.94328081 63 13 C64.56306791 15.45765394 65.81757212 16.97726196 68 19 C71.53706124 19.73444753 71.53706124 19.73444753 75 18 C76.74045677 15.94510956 78.08453021 13.79810322 79.48046875 11.49609375 C85.2189563 2.06963219 85.2189563 2.06963219 90.234375 0.140625 C94.35023598 -0.5499557 96.52098043 -0.23499073 100.3125 1.625 C102.90112646 3.91262338 104.97993261 6.20298361 107 9 C107.53625 8.319375 108.0725 7.63875 108.625 6.9375 C111 5 111 5 114.25 5.25 C115.61125 5.62125 115.61125 5.62125 117 6 C118.33157895 11.44736842 118.33157895 11.44736842 116.875 13.875 C114.46277487 15.32233508 112.7648665 15.22417836 110 15 C112.17078869 17.67173993 113.50790344 18.87162698 116.875 19.75 C121.76958568 18.57529944 123.34457765 15.06245133 126 11 C132.57847826 1.5423913 132.57847826 1.5423913 137 0 C140.1352708 -0.12405748 142.9798625 0.13384736 146 1 C147.37195574 2.29355827 148.71182656 3.62298702 150 5 C153.04173894 5.16670273 153.04173894 5.16670273 156 5 C156.99 5.66 157.98 6.32 159 7 C159.43132515 11.05445642 159.30019361 12.54970958 157 16 C158.86241253 18.4832167 159.81888351 18.96917166 162.9375 19.5 C166.13878738 19.25926453 166.13878738 19.25926453 168.375 16.875 C170.24350376 13.56918565 170.08094182 11.72332394 170 8 C172.02956392 5.0090637 174.70628407 4.25474893 178 3 C178.825 2.443125 179.65 1.88625 180.5 1.3125 C183 0 183 0 185.8125 0.3125 C186.534375 0.539375 187.25625 0.76625 188 1 C188 2.32 188 3.64 188 5 C186.88625 5.37125 185.7725 5.7425 184.625 6.125 C182.66886497 6.8938172 182.66886497 6.8938172 181 8 C179.81664605 10.88318775 179.81664605 10.88318775 179 14 C176.6875 16.5625 176.6875 16.5625 174 19 C173.113125 19.9075 172.22625 20.815 171.3125 21.75 C167.90680217 25.06365194 165.88231704 25.14575176 161.16796875 25.328125 C157.57851938 24.78485699 155.06244969 23.36131128 152.80834961 20.47314453 C151.60956137 18.65591177 150.48126836 16.81243414 149.375 14.9375 C146.40265169 9.85597113 146.40265169 9.85597113 142 6 C139.84725052 6.30840599 139.84725052 6.30840599 138 7 C138.226875 7.5775 138.45375 8.155 138.6875 8.75 C139 11 139 11 137.875 13.25 C136.946875 14.11625 136.946875 14.11625 136 15 C134.83404297 14.91685547 134.83404297 14.91685547 133.64453125 14.83203125 C130.84640778 14.73672559 130.84640778 14.73672559 128.83203125 16.93359375 C128.16558594 17.75988281 127.49914062 18.58617187 126.8125 19.4375 C123.13245033 23.93377483 123.13245033 23.93377483 121 25 C115.50470278 25.36034736 112.51317119 25.45528936 108 22 C106.05306126 19.5577589 104.40164274 16.96056793 102.75 14.3125 C101.18986231 11.85731221 99.60971361 9.42351328 98 7 C97.67 7 97.34 7 97 7 C97.04125 7.94875 97.0825 8.8975 97.125 9.875 C97 13 97 13 95 15 C88.53846154 14.53846154 88.53846154 14.53846154 86 12 C85.62488281 12.60328125 85.24976562 13.2065625 84.86328125 13.828125 C79.17292566 22.71482642 79.17292566 22.71482642 75 25 C70.30644738 25.59600668 68.07807938 25.50733147 63.8125 23.5 C60.33551407 20.40934584 58.22215928 17.05101603 56 13 C55.01 13.66 54.02 14.32 53 15 C50.4375 15.25 50.4375 15.25 48 15 C46 13 46 13 45.875 9.875 C45.91625 8.92625 45.9575 7.9775 46 7 C42.00324513 8.49223817 40.71700844 10.68340555 38.625 14.3125 C35.78630689 18.90503534 33.6719339 22.23497789 29 25 C24.57954922 25.97836939 21.7101175 25.36175797 17.6875 23.3125 C15 21 15 21 13.5 18.375 C12.15832445 15.69134555 12.15832445 15.69134555 8.9375 15 C6 14 6 14 4.625 11.5625 C4 9 4 9 4 6 C1.525 5.01 1.525 5.01 -1 4 C-0.67 2.68 -0.34 1.36 0 0 Z " fill="#FE2273" transform="translate(21,170)"/>
<path d="M0 0 C3.125 0.375 3.125 0.375 6 1 C6.625 4.375 6.625 4.375 7 8 C5 10 5 10 2 10.3125 C1.01 10.209375 0.02 10.10625 -1 10 C-3 7 -3 7 -2.75 4.4375 C-2 2 -2 2 0 0 Z " fill="#E0E6ED" transform="translate(194,197)"/>
<path d="M0 0 C3.125 0.375 3.125 0.375 6 1 C6.625 4.375 6.625 4.375 7 8 C5 10 5 10 2 10.3125 C1.01 10.209375 0.02 10.10625 -1 10 C-3 7 -3 7 -2.75 4.4375 C-2 2 -2 2 0 0 Z " fill="#E0E6ED" transform="translate(49,197)"/>
<path d="M0 0 C2.4375 0.8125 2.4375 0.8125 4.4375 2.8125 C3.86931818 8.38068182 3.86931818 8.38068182 2.4375 9.8125 C-0.5 10 -0.5 10 -3.5625 9.8125 C-5.5625 7.8125 -5.5625 7.8125 -5.875 5.375 C-5.5625 2.8125 -5.5625 2.8125 -4.375 0.9375 C-2.5625 -0.1875 -2.5625 -0.1875 0 0 Z " fill="#E0E6ED" transform="translate(134.5625,197.1875)"/>
<path d="M0 0 C0.66 0.66 1.32 1.32 2 2 C1.625 5.125 1.625 5.125 1 8 C-2.375 8.625 -2.375 8.625 -6 9 C-6.66 8.34 -7.32 7.68 -8 7 C-7.75 3.4375 -7.75 3.4375 -7 0 C-4.29393021 -1.35303489 -2.8671629 -0.7884698 0 0 Z " fill="#E0E6ED" transform="translate(220,176)"/>
<path d="M0 0 C3.625 0.375 3.625 0.375 7 1 C8.32278481 6.41139241 8.32278481 6.41139241 6.9375 8.9375 C4.08906752 10.49954362 2.06495097 9.74921024 -1 9 C-1.625 5.625 -1.625 5.625 -2 2 C-1.34 1.34 -0.68 0.68 0 0 Z " fill="#E0E6ED" transform="translate(214,131)"/>
<path d="M0 0 C0.66 0.66 1.32 1.32 2 2 C1.625 5.625 1.625 5.625 1 9 C-4.41139241 10.32278481 -4.41139241 10.32278481 -6.9375 8.9375 C-8.52666796 6.03960549 -7.87523205 4.09697496 -7 1 C-4.48718205 -0.25640898 -2.78302919 -0.20872719 0 0 Z " fill="#E0E6ED" transform="translate(199,131)"/>
<path d="M0 0 C3.0625 0.1875 3.0625 0.1875 5.0625 2.1875 C4.6875 5.8125 4.6875 5.8125 4.0625 9.1875 C1.8125 9.875 1.8125 9.875 -0.9375 10.1875 C-3.25 8.75 -3.25 8.75 -4.9375 7.1875 C-3.9041362 0.24920018 -3.9041362 0.24920018 0 0 Z " fill="#E0E6ED" transform="translate(195.9375,108.8125)"/>
<path d="M0 0 C0.99 0.103125 1.98 0.20625 3 0.3125 C5 3.3125 5 3.3125 4.75 5.875 C4 8.3125 4 8.3125 2 10.3125 C-1.29714793 9.98278521 -2.6226839 9.6898161 -5 7.3125 C-5.25 4.8125 -5.25 4.8125 -5 2.3125 C-3 0.3125 -3 0.3125 0 0 Z " fill="#E0E6ED" transform="translate(134,108.6875)"/>
<path d="M0 0 C0.66 0.66 1.32 1.32 2 2 C1.625 5.125 1.625 5.125 1 8 C-2.375 8.625 -2.375 8.625 -6 9 C-6.66 8.34 -7.32 7.68 -8 7 C-7.75 3.4375 -7.75 3.4375 -7 0 C-4.29393021 -1.35303489 -2.8671629 -0.7884698 0 0 Z " fill="#E0E6ED" transform="translate(220,198)"/>
<path d="M0 0 C1.32278481 5.41139241 1.32278481 5.41139241 -0.0625 7.9375 C-2.91093248 9.49954362 -4.93504903 8.74921024 -8 8 C-9.32278481 2.58860759 -9.32278481 2.58860759 -7.9375 0.0625 C-5.08906752 -1.49954362 -3.06495097 -0.74921024 0 0 Z " fill="#E0E6ED" transform="translate(138,176)"/>
<path d="M0 0 C2.3125 0.8125 2.3125 0.8125 3.3125 1.8125 C3.5 4.75 3.5 4.75 3.3125 7.8125 C2.6525 8.4725 1.9925 9.1325 1.3125 9.8125 C-2.3125 9.4375 -2.3125 9.4375 -5.6875 8.8125 C-6.4375 6.5625 -6.4375 6.5625 -6.6875 3.8125 C-4.61948351 0.79001437 -3.73218171 -0.26038477 0 0 Z " fill="#E0E3EB" transform="translate(114.6875,175.1875)"/>
<path d="M0 0 C2.4375 0.75 2.4375 0.75 4.4375 2.75 C4.10778521 6.04714793 3.8148161 7.3726839 1.4375 9.75 C-4.13068182 9.18181818 -4.13068182 9.18181818 -5.5625 7.75 C-5.8125 4.8125 -5.8125 4.8125 -5.5625 1.75 C-2.5625 -0.25 -2.5625 -0.25 0 0 Z " fill="#E0E6ED" transform="translate(217.5625,153.25)"/>
<path d="M0 0 C2.5625 0.375 2.5625 0.375 4.5 2.0625 C5.5625 4.375 5.5625 4.375 4.8125 7.0625 C3.5625 9.375 3.5625 9.375 2.5625 10.375 C0.125 10.5625 0.125 10.5625 -2.4375 10.375 C-4.4375 8.375 -4.4375 8.375 -4.6875 5.375 C-4.37594563 1.63634762 -3.76270131 0.57887713 0 0 Z " fill="#E0E6ED" transform="translate(154.4375,152.625)"/>
<path d="M0 0 C5.56818182 0.56818182 5.56818182 0.56818182 7 2 C7.25 4.9375 7.25 4.9375 7 8 C4 10 4 10 1.4375 9.75 C-1 9 -1 9 -3 7 C-2.67028521 3.70285207 -2.3773161 2.3773161 0 0 Z " fill="#E0E6ED" transform="translate(111,153)"/>
<path d="M0 0 C2.4375 0.75 2.4375 0.75 4.4375 2.75 C4.10778521 6.04714793 3.8148161 7.3726839 1.4375 9.75 C-4.13068182 9.18181818 -4.13068182 9.18181818 -5.5625 7.75 C-5.8125 4.8125 -5.8125 4.8125 -5.5625 1.75 C-2.5625 -0.25 -2.5625 -0.25 0 0 Z " fill="#E0E6ED" transform="translate(72.5625,153.25)"/>
<path d="M0 0 C2.5625 0.375 2.5625 0.375 4.5 2.0625 C5.5625 4.375 5.5625 4.375 4.8125 7.0625 C3.5625 9.375 3.5625 9.375 2.5625 10.375 C0.125 10.5625 0.125 10.5625 -2.4375 10.375 C-4.4375 8.375 -4.4375 8.375 -4.6875 5.375 C-4.37594563 1.63634762 -3.76270131 0.57887713 0 0 Z " fill="#E0E6ED" transform="translate(9.4375,152.625)"/>
<path d="M0 0 C2.5 0.25 2.5 0.25 4.5 2.25 C4.8125 5.25 4.8125 5.25 4.5 8.25 C1.5 10.25 1.5 10.25 -1.0625 10.0625 C-3.5 9.25 -3.5 9.25 -5.5 6.25 C-5.04523279 2.49817053 -4.00542288 0.40054229 0 0 Z " fill="#E0E6ED" transform="translate(258.5,130.75)"/>
<path d="M0 0 C2.31 0.33 4.62 0.66 7 1 C8.32278481 6.41139241 8.32278481 6.41139241 6.9375 8.9375 C4.08906752 10.49954362 2.06495097 9.74921024 -1 9 C-1.625 6.1875 -1.625 6.1875 -2 3 C-1.34 2.01 -0.68 1.02 0 0 Z " fill="#E0E6ED" transform="translate(131,131)"/>
<path d="M0 0 C2 3 2 3 1.625 6.1875 C1.41875 7.115625 1.2125 8.04375 1 9 C-4.41139241 10.32278481 -4.41139241 10.32278481 -6.9375 8.9375 C-8.52666796 6.03960549 -7.87523205 4.09697496 -7 1 C-4.46578263 -0.26710868 -2.80561762 -0.28056176 0 0 Z " fill="#E0E6ED" transform="translate(54,131)"/>
<path d="M0 0 C2 2 2 2 2.3125 5 C2.1578125 6.485 2.1578125 6.485 2 8 C-1 10 -1 10 -3.5625 9.8125 C-6 9 -6 9 -8 6 C-7.75 3.375 -7.75 3.375 -7 1 C-4.48718205 -0.25640898 -2.78302919 -0.20872719 0 0 Z " fill="#E0E6ED" transform="translate(261,109)"/>
<path d="M0 0 C3.625 0.375 3.625 0.375 7 1 C7.33 2.98 7.66 4.96 8 7 C6.3125 8.5625 6.3125 8.5625 4 10 C1.25 9.6875 1.25 9.6875 -1 9 C-1.625 5.625 -1.625 5.625 -2 2 C-1.34 1.34 -0.68 0.68 0 0 Z " fill="#E0E6ED" transform="translate(214,109)"/>
<path d="M0 0 C3.0625 0.1875 3.0625 0.1875 5.0625 2.1875 C5.43046448 5.05762296 5.43759409 6.59524618 3.875 9.0625 C2.0625 10.1875 2.0625 10.1875 -0.5 10 C-2.9375 9.1875 -2.9375 9.1875 -4.9375 7.1875 C-4.23164336 0.2701049 -4.23164336 0.2701049 0 0 Z " fill="#E0E6ED" transform="translate(50.9375,108.8125)"/>
<path d="M0 0 C2.3125 1.375 2.3125 1.375 3.25 3.25 C3.3256712 5.82282067 2.63418051 7.19811446 1.3125 9.375 C-1.5625 9.5 -1.5625 9.5 -4.6875 9.375 C-6.6875 7.375 -6.6875 7.375 -6.8125 4.25 C-6.77125 3.30125 -6.73 2.3525 -6.6875 1.375 C-4.08385497 -0.36076335 -3.11173473 -0.72365924 0 0 Z " fill="#E0E6ED" transform="translate(156.6875,219.625)"/>
<path d="M0 0 C2.375 1.375 2.375 1.375 3.3125 3.8125 C3.375 6.375 3.375 6.375 1.375 9.375 C-1.625 9.6875 -1.625 9.6875 -4.625 9.375 C-5.285 8.715 -5.945 8.055 -6.625 7.375 C-6.25 3.75 -6.25 3.75 -5.625 0.375 C-2.625 -0.625 -2.625 -0.625 0 0 Z " fill="#E0E6ED" transform="translate(73.625,219.625)"/>
<path d="M0 0 C4.34482759 1.34482759 4.34482759 1.34482759 6 3 C6.1875 5.4375 6.1875 5.4375 6 8 C4 10 4 10 1 10.3125 C0.01 10.209375 -0.98 10.10625 -2 10 C-4 7 -4 7 -3.8125 4.4375 C-3 2 -3 2 0 0 Z " fill="#E0E6ED" transform="translate(195,219)"/>
<path d="M0 0 C2.3125 1.5 2.3125 1.5 3.25 3.9375 C3.3125 6.5 3.3125 6.5 1.3125 9.5 C-1.6875 9.8125 -1.6875 9.8125 -4.6875 9.5 C-6.6875 7.5 -6.6875 7.5 -7.0625 5.0625 C-6.6875 2.5 -6.6875 2.5 -5 0.5625 C-2.6875 -0.5 -2.6875 -0.5 0 0 Z " fill="#E0E6ED" transform="translate(135.6875,219.5)"/>
<path d="M0 0 C0.763125 0.20625 1.52625 0.4125 2.3125 0.625 C2.9375 4 2.9375 4 3.3125 7.625 C1.3125 9.625 1.3125 9.625 -1.6875 9.9375 C-2.6775 9.834375 -3.6675 9.73125 -4.6875 9.625 C-6.6875 6.625 -6.6875 6.625 -6.5 4.0625 C-5.2959794 0.45043821 -3.76396151 -0.52520393 0 0 Z " fill="#E0E6ED" transform="translate(114.6875,219.375)"/>
<path d="M0 0 C4.34482759 1.34482759 4.34482759 1.34482759 6 3 C6.1875 5.4375 6.1875 5.4375 6 8 C4 10 4 10 1 10.3125 C0.01 10.209375 -0.98 10.10625 -2 10 C-4 7 -4 7 -3.8125 4.4375 C-3 2 -3 2 0 0 Z " fill="#E0E6ED" transform="translate(50,219)"/>
<path d="M0 0 C2.4375 0.9375 2.4375 0.9375 3.8125 3.3125 C4.4375 5.9375 4.4375 5.9375 3.4375 8.9375 C0.0625 9.5625 0.0625 9.5625 -3.5625 9.9375 C-5.5625 7.9375 -5.5625 7.9375 -5.875 4.9375 C-5.771875 3.9475 -5.66875 2.9575 -5.5625 1.9375 C-2.5625 -0.0625 -2.5625 -0.0625 0 0 Z " fill="#E0E6ED" transform="translate(155.5625,197.0625)"/>
<path d="M0 0 C0.7425 0.2475 1.485 0.495 2.25 0.75 C2.875 4.125 2.875 4.125 3.25 7.75 C2.59 8.41 1.93 9.07 1.25 9.75 C-2.375 9.375 -2.375 9.375 -5.75 8.75 C-6.5 6.5 -6.5 6.5 -6.75 3.75 C-4.64876805 0.67896869 -3.78845323 -0.34440484 0 0 Z " fill="#E0E6ED" transform="translate(114.75,197.25)"/>
<path d="M0 0 C2 3 2 3 1.625 5.6875 C1.41875 6.450625 1.2125 7.21375 1 8 C-2.375 8.625 -2.375 8.625 -6 9 C-6.66 8.34 -7.32 7.68 -8 7 C-7.75 3.4375 -7.75 3.4375 -7 0 C-4.27584084 -1.36207958 -2.87220643 -0.86166193 0 0 Z " fill="#E0E6ED" transform="translate(75,198)"/>
<path d="M0 0 C2.4375 0.375 2.4375 0.375 4.4375 2.375 C4.75 5.375 4.75 5.375 4.4375 8.375 C1.4375 10.375 1.4375 10.375 -1.125 10.3125 C-3.5625 9.375 -3.5625 9.375 -5.0625 7.0625 C-5.5625 4.375 -5.5625 4.375 -4.5 2.0625 C-2.5625 0.375 -2.5625 0.375 0 0 Z " fill="#E0E6ED" transform="translate(258.5625,152.625)"/>
<path d="M0 0 C1.2684375 0.12375 1.2684375 0.12375 2.5625 0.25 C4.71165785 3.47373677 4.94536803 4.51703674 4.5625 8.25 C2.5625 10.25 2.5625 10.25 0.125 10.625 C-2.4375 10.25 -2.4375 10.25 -4.375 8.5625 C-5.4375 6.25 -5.4375 6.25 -4.6875 3.5625 C-2.923927 0.29988995 -2.923927 0.29988995 0 0 Z " fill="#E0E5EC" transform="translate(30.4375,152.75)"/>
<path d="M0 0 C3.625 0.375 3.625 0.375 7 1 C7.75 3.25 7.75 3.25 8 6 C6.375 8.375 6.375 8.375 4 10 C-0.3 9.7 -0.3 9.7 -2 8 C-2.1875 5.0625 -2.1875 5.0625 -2 2 C-1.34 1.34 -0.68 0.68 0 0 Z " fill="#E0E6ED" transform="translate(152,109)"/>
<path d="M0 0 C0.66 0.66 1.32 1.32 2 2 C1.625 5.625 1.625 5.625 1 9 C-1.25 9.75 -1.25 9.75 -4 10 C-6.375 8.375 -6.375 8.375 -8 6 C-7.875 3.3125 -7.875 3.3125 -7 1 C-4.48718205 -0.25640898 -2.78302919 -0.20872719 0 0 Z " fill="#E0E6ED" transform="translate(116,109)"/>
<path d="M0 0 C3.625 0.375 3.625 0.375 7 1 C7.75 3.25 7.75 3.25 8 6 C6.375 8.375 6.375 8.375 4 10 C1.25 9.75 1.25 9.75 -1 9 C-1.625 5.625 -1.625 5.625 -2 2 C-1.34 1.34 -0.68 0.68 0 0 Z " fill="#E0E6ED" transform="translate(69,109)"/>
<path d="M0 0 C3 -0.3125 3 -0.3125 6 0 C8 2 8 2 8.375 4.4375 C8 7 8 7 6.3125 8.9375 C4 10 4 10 1.3125 9.5 C-1 8 -1 8 -1.9375 5.5625 C-2 3 -2 3 0 0 Z " fill="#E0E6ED" transform="translate(193,87)"/>
<path d="M0 0 C0.94875 0.04125 1.8975 0.0825 2.875 0.125 C3.535 2.105 4.195 4.085 4.875 6.125 C3.555 7.445 2.235 8.765 0.875 10.125 C-1.105 9.465 -3.085 8.805 -5.125 8.125 C-5.25 5.25 -5.25 5.25 -5.125 2.125 C-3.125 0.125 -3.125 0.125 0 0 Z " fill="#E0E6ED" transform="translate(155.125,86.875)"/>
<path d="M0 0 C0.99 0.103125 1.98 0.20625 3 0.3125 C5 3.3125 5 3.3125 4.9375 5.875 C4 8.3125 4 8.3125 1.6875 9.8125 C-1 10.3125 -1 10.3125 -3.3125 9.25 C-5 7.3125 -5 7.3125 -5.375 4.75 C-4.79696323 0.99276099 -3.72176816 0.38768418 0 0 Z " fill="#E0E6ED" transform="translate(134,86.6875)"/>
<path d="M0 0 C3.0625 0.1875 3.0625 0.1875 5.0625 2.1875 C4.6875 5.8125 4.6875 5.8125 4.0625 9.1875 C1.8125 9.9375 1.8125 9.9375 -0.9375 10.1875 C-3.3125 8.5625 -3.3125 8.5625 -4.9375 6.1875 C-4.6378833 1.89299401 -4.44548893 0.28375461 0 0 Z " fill="#E0E6ED" transform="translate(112.9375,86.8125)"/>
<path d="M0 0 C3 -0.3125 3 -0.3125 6 0 C8 2 8 2 8.375 4.4375 C8 7 8 7 6.3125 8.9375 C4 10 4 10 1.3125 9.5 C-1 8 -1 8 -1.9375 5.5625 C-2 3 -2 3 0 0 Z " fill="#E0E6ED" transform="translate(48,87)"/>
<path d="M0 0 C2.3125 1.375 2.3125 1.375 3.25 3.25 C3.3256712 5.82282067 2.63418051 7.19811446 1.3125 9.375 C-1.5625 9.5 -1.5625 9.5 -4.6875 9.375 C-6.6875 7.375 -6.6875 7.375 -6.8125 4.25 C-6.77125 3.30125 -6.73 2.3525 -6.6875 1.375 C-4.08385497 -0.36076335 -3.11173473 -0.72365924 0 0 Z " fill="#E0E6ED" transform="translate(156.6875,20.625)"/>
<path d="M0 0 C2.375 1.375 2.375 1.375 3.3125 3.8125 C3.375 6.375 3.375 6.375 1.375 9.375 C-1.625 9.6875 -1.625 9.6875 -4.625 9.375 C-5.285 8.715 -5.945 8.055 -6.625 7.375 C-6.25 3.75 -6.25 3.75 -5.625 0.375 C-2.625 -0.625 -2.625 -0.625 0 0 Z " fill="#E0E6ED" transform="translate(73.625,20.625)"/>
<path d="M0 0 C4.34482759 1.34482759 4.34482759 1.34482759 6 3 C6.1875 5.4375 6.1875 5.4375 6 8 C4 10 4 10 1 10.3125 C0.01 10.209375 -0.98 10.10625 -2 10 C-4 7 -4 7 -3.8125 4.4375 C-3 2 -3 2 0 0 Z " fill="#E0E6ED" transform="translate(195,20)"/>
<path d="M0 0 C2.3125 1.5 2.3125 1.5 3.25 3.9375 C3.3125 6.5 3.3125 6.5 1.3125 9.5 C-1.6875 9.8125 -1.6875 9.8125 -4.6875 9.5 C-6.6875 7.5 -6.6875 7.5 -7.0625 5.0625 C-6.6875 2.5 -6.6875 2.5 -5 0.5625 C-2.6875 -0.5 -2.6875 -0.5 0 0 Z " fill="#E0E6ED" transform="translate(135.6875,20.5)"/>
<path d="M0 0 C0.763125 0.20625 1.52625 0.4125 2.3125 0.625 C2.9375 4 2.9375 4 3.3125 7.625 C1.3125 9.625 1.3125 9.625 -1.6875 9.9375 C-2.6775 9.834375 -3.6675 9.73125 -4.6875 9.625 C-6.6875 6.625 -6.6875 6.625 -6.5 4.0625 C-5.2959794 0.45043821 -3.76396151 -0.52520393 0 0 Z " fill="#E0E6ED" transform="translate(114.6875,20.375)"/>
<path d="M0 0 C3 0.25 3 0.25 5 2.25 C5.25 4.75 5.25 4.75 5 7.25 C3 9.25 3 9.25 0 9.5 C-3 9.25 -3 9.25 -5 7.25 C-5.25 4.75 -5.25 4.75 -5 2.25 C-3 0.25 -3 0.25 0 0 Z " fill="#E0E6ED" transform="translate(134,241.75)"/>
<path d="M0 0 C2.3125 1.5 2.3125 1.5 3.25 3.9375 C3.3125 6.5 3.3125 6.5 1.3125 9.5 C-1.6875 9.8125 -1.6875 9.8125 -4.6875 9.5 C-6.6875 7.5 -6.6875 7.5 -7.0625 5.0625 C-6.6875 2.5 -6.6875 2.5 -5 0.5625 C-2.6875 -0.5 -2.6875 -0.5 0 0 Z " fill="#E0E6ED" transform="translate(218.6875,219.5)"/>
<path d="M0 0 C1 1 1 1 1.1875 3.9375 C1 7 1 7 -1 9 C-3.4375 9.375 -3.4375 9.375 -6 9 C-7.9375 7.3125 -7.9375 7.3125 -9 5 C-8.3125 2.3125 -8.3125 2.3125 -7 0 C-4.31633121 -1.3418344 -2.84719317 -0.73004953 0 0 Z " fill="#E0E6ED" transform="translate(34,198)"/>
<path d="M0 0 C0.6875 2.25 0.6875 2.25 1 5 C-0.4375 7.3125 -0.4375 7.3125 -2 9 C-4.97 8.505 -4.97 8.505 -8 8 C-9.32278481 2.58860759 -9.32278481 2.58860759 -7.9375 0.0625 C-5.08906752 -1.49954362 -3.06495097 -0.74921024 0 0 Z " fill="#E0E5EC" transform="translate(55,176)"/>
<path d="M0 0 C2.5 0.25 2.5 0.25 4.5 2.25 C4.75 5.25 4.75 5.25 4.5 8.25 C2.5 10.25 2.5 10.25 0 10.5 C-2.5 10.25 -2.5 10.25 -4.5 8.25 C-4.75 5.25 -4.75 5.25 -4.5 2.25 C-2.5 0.25 -2.5 0.25 0 0 Z " fill="#E0E6ED" transform="translate(237.5,152.75)"/>
<path d="M0 0 C2.4375 0.375 2.4375 0.375 4.4375 2.375 C4.75 5.375 4.75 5.375 4.4375 8.375 C1.4375 10.375 1.4375 10.375 -1.125 10.3125 C-3.5625 9.375 -3.5625 9.375 -5.0625 7.0625 C-5.5625 4.375 -5.5625 4.375 -4.5 2.0625 C-2.5625 0.375 -2.5625 0.375 0 0 Z " fill="#E0E6ED" transform="translate(30.5625,130.625)"/>
<path d="M0 0 C2.5625 0.4375 2.5625 0.4375 4.375 2.9375 C4.766875 3.7625 5.15875 4.5875 5.5625 5.4375 C4.0775 7.9125 4.0775 7.9125 2.5625 10.4375 C-3.3125 9.5625 -3.3125 9.5625 -4.4375 8.4375 C-4.625 5.5 -4.625 5.5 -4.4375 2.4375 C-2.4375 0.4375 -2.4375 0.4375 0 0 Z " fill="#E0E6ED" transform="translate(9.4375,130.5625)"/>
<path d="M0 0 C2.4375 0.375 2.4375 0.375 4.4375 2.375 C4.75 5.375 4.75 5.375 4.4375 8.375 C1.4375 10.375 1.4375 10.375 -1.125 10.3125 C-3.5625 9.375 -3.5625 9.375 -5.0625 7.0625 C-5.5625 4.375 -5.5625 4.375 -4.5 2.0625 C-2.5625 0.375 -2.5625 0.375 0 0 Z " fill="#E0E6ED" transform="translate(30.5625,108.625)"/>
<path d="M0 0 C0.99 0.103125 1.98 0.20625 3 0.3125 C5 3.3125 5 3.3125 4.9375 5.875 C4 8.3125 4 8.3125 1.6875 9.8125 C-1 10.3125 -1 10.3125 -3.3125 9.25 C-5 7.3125 -5 7.3125 -5.375 4.75 C-4.79696323 0.99276099 -3.72176816 0.38768418 0 0 Z " fill="#E0E6ED" transform="translate(217,86.6875)"/>
<path d="M0 0 C0.99 0.103125 1.98 0.20625 3 0.3125 C5 3.3125 5 3.3125 4.9375 5.875 C4 8.3125 4 8.3125 1.6875 9.8125 C-1 10.3125 -1 10.3125 -3.3125 9.25 C-5 7.3125 -5 7.3125 -5.375 4.75 C-4.79696323 0.99276099 -3.72176816 0.38768418 0 0 Z " fill="#E0E6ED" transform="translate(72,86.6875)"/>
<path d="M0 0 C2.875 -0.125 2.875 -0.125 6 0 C8 2 8 2 8.125 5.125 C8.08375 6.07375 8.0425 7.0225 8 8 C5.1875 9.125 5.1875 9.125 2 10 C-1 8 -1 8 -1.8125 6.125 C-2.04398726 3.50147776 -1.34771696 2.21976911 0 0 Z " fill="#E0E6ED" transform="translate(27,87)"/>
<path d="M0 0 C3 0.25 3 0.25 5 2.25 C5.25 4.75 5.25 4.75 5 7.25 C3 9.25 3 9.25 0 9.5 C-3 9.25 -3 9.25 -5 7.25 C-5.25 4.75 -5.25 4.75 -5 2.25 C-3 0.25 -3 0.25 0 0 Z " fill="#E0E6ED" transform="translate(134,64.75)"/>
<path d="M0 0 C3 0.25 3 0.25 5 2.25 C5.25 4.75 5.25 4.75 5 7.25 C3 9.25 3 9.25 0 9.5 C-3 9.25 -3 9.25 -5 7.25 C-5.25 4.75 -5.25 4.75 -5 2.25 C-3 0.25 -3 0.25 0 0 Z " fill="#E0E6ED" transform="translate(51,64.75)"/>
<path d="M0 0 C3 0.25 3 0.25 5 2.25 C5.25 4.75 5.25 4.75 5 7.25 C3 9.25 3 9.25 0 9.5 C-3 9.25 -3 9.25 -5 7.25 C-5.25 4.75 -5.25 4.75 -5 2.25 C-3 0.25 -3 0.25 0 0 Z " fill="#E0E6ED" transform="translate(134,42.75)"/>
<path d="M0 0 C3 0.25 3 0.25 5 2.25 C5.25 4.75 5.25 4.75 5 7.25 C3 9.25 3 9.25 0 9.5 C-3 9.25 -3 9.25 -5 7.25 C-5.25 4.75 -5.25 4.75 -5 2.25 C-3 0.25 -3 0.25 0 0 Z " fill="#E0E6ED" transform="translate(51,42.75)"/>
<path d="M0 0 C3.0625 0.1875 3.0625 0.1875 5.0625 2.1875 C5.3125 4.6875 5.3125 4.6875 5.0625 7.1875 C3.0625 9.1875 3.0625 9.1875 0.0625 9.5 C-0.9275 9.396875 -1.9175 9.29375 -2.9375 9.1875 C-4.9375 6.1875 -4.9375 6.1875 -4.625 3.5625 C-3.63731654 0.1505026 -3.65603948 0.23336422 0 0 Z " fill="#E0E6ED" transform="translate(195.9375,241.8125)"/>
<path d="M0 0 C2.375 0.6875 2.375 0.6875 3.375 1.6875 C3.5625 4.625 3.5625 4.625 3.375 7.6875 C1.375 9.6875 1.375 9.6875 -1.125 9.9375 C-3.625 9.6875 -3.625 9.6875 -5.625 7.6875 C-5.9375 4.6875 -5.9375 4.6875 -5.625 1.6875 C-2.625 -0.3125 -2.625 -0.3125 0 0 Z " fill="#E0E6ED" transform="translate(238.625,175.3125)"/>
<path d="M0 0 C2.5 0.25 2.5 0.25 4.5 2.25 C4.8125 5.25 4.8125 5.25 4.5 8.25 C1.5 10.25 1.5 10.25 -1.125 9.9375 C-3.5 9.25 -3.5 9.25 -4.5 8.25 C-4.6875 5.3125 -4.6875 5.3125 -4.5 2.25 C-2.5 0.25 -2.5 0.25 0 0 Z " fill="#E0E6ED" transform="translate(175.5,130.75)"/>
<path d="M0 0 C2.5625 0.4375 2.5625 0.4375 4.5 2.6875 C5.5625 5.4375 5.5625 5.4375 5.0625 7.6875 C3.5625 9.4375 3.5625 9.4375 1.125 10.3125 C-1.4375 10.4375 -1.4375 10.4375 -4.4375 8.4375 C-4.75 5.4375 -4.75 5.4375 -4.4375 2.4375 C-2.4375 0.4375 -2.4375 0.4375 0 0 Z " fill="#E0E6ED" transform="translate(9.4375,108.5625)"/>
<path d="M0 0 C3.0625 0.1875 3.0625 0.1875 5.0625 2.1875 C5.3125 4.6875 5.3125 4.6875 5.0625 7.1875 C3.0625 9.1875 3.0625 9.1875 0.0625 9.4375 C-2.9375 9.1875 -2.9375 9.1875 -4.9375 7.1875 C-4.23164336 0.2701049 -4.23164336 0.2701049 0 0 Z " fill="#E0E6ED" transform="translate(195.9375,64.8125)"/>
<path d="M0 0 C3.5 0.125 3.5 0.125 4.5 1.125 C4.625 4.625 4.625 4.625 4.5 8.125 C3.5 9.125 3.5 9.125 0 9.25 C-3.5 9.125 -3.5 9.125 -4.5 8.125 C-4.625 4.625 -4.625 4.625 -4.5 1.125 C-3.5 0.125 -3.5 0.125 0 0 Z " fill="#E0E6ED" transform="translate(92.5,64.875)"/>
<path d="M0 0 C3.0625 0.1875 3.0625 0.1875 5.0625 2.1875 C5.3125 4.6875 5.3125 4.6875 5.0625 7.1875 C3.0625 9.1875 3.0625 9.1875 0.0625 9.5 C-0.9275 9.396875 -1.9175 9.29375 -2.9375 9.1875 C-4.9375 6.1875 -4.9375 6.1875 -4.625 3.5625 C-3.63731654 0.1505026 -3.65603948 0.23336422 0 0 Z " fill="#E0E6ED" transform="translate(195.9375,42.8125)"/>
<path d="M0 0 C3.5 0.125 3.5 0.125 4.5 1.125 C4.625 4.625 4.625 4.625 4.5 8.125 C3.5 9.125 3.5 9.125 0 9.25 C-3.5 9.125 -3.5 9.125 -4.5 8.125 C-4.625 4.625 -4.625 4.625 -4.5 1.125 C-3.5 0.125 -3.5 0.125 0 0 Z " fill="#E0E6ED" transform="translate(92.5,42.875)"/>
<path d="M0 0 C2.31 0 4.62 0 7 0 C8.125 2.25 8.125 2.25 9 5 C8.125 7.3125 8.125 7.3125 7 9 C4.125 9.125 4.125 9.125 1 9 C0.34 8.34 -0.32 7.68 -1 7 C-0.625 3.375 -0.625 3.375 0 0 Z " fill="#E0E6ED" transform="translate(151,242)"/>
<path d="M0 0 C3.0625 0.1875 3.0625 0.1875 5.0625 2.1875 C5.3125 4.6875 5.3125 4.6875 5.0625 7.1875 C3.0625 9.1875 3.0625 9.1875 0.0625 9.5 C-0.9275 9.396875 -1.9175 9.29375 -2.9375 9.1875 C-4.9375 6.1875 -4.9375 6.1875 -4.625 3.5625 C-3.63731654 0.1505026 -3.65603948 0.23336422 0 0 Z " fill="#E0E6ED" transform="translate(112.9375,241.8125)"/>
<path d="M0 0 C3.5 0.125 3.5 0.125 4.5 1.125 C4.625 4.625 4.625 4.625 4.5 8.125 C3.5 9.125 3.5 9.125 0.5625 9.25 C-2.5 9.125 -2.5 9.125 -4.5 8.125 C-4.54241723 5.79205225 -4.54092937 3.45797433 -4.5 1.125 C-3.5 0.125 -3.5 0.125 0 0 Z " fill="#E0E6ED" transform="translate(92.5,241.875)"/>
<path d="M0 0 C0.99 0.103125 1.98 0.20625 3 0.3125 C5 3.3125 5 3.3125 4.6875 5.9375 C4 8.3125 4 8.3125 3 9.3125 C0.0625 9.5 0.0625 9.5 -3 9.3125 C-5 7.3125 -5 7.3125 -5.25 4.8125 C-4.86676958 0.9801958 -3.75087075 0.3907157 0 0 Z " fill="#E0E6ED" transform="translate(72,241.6875)"/>
<path d="M0 0 C3.1875 0.875 3.1875 0.875 6 2 C6.125 4.875 6.125 4.875 6 8 C5.34 8.66 4.68 9.32 4 10 C0.375 9.625 0.375 9.625 -3 9 C-3.1875 5.625 -3.1875 5.625 -3 2 C-2.01 1.34 -1.02 0.68 0 0 Z " fill="#E0E6ED" transform="translate(174,219)"/>
<path d="M0 0 C2.375 0.6875 2.375 0.6875 3.375 1.6875 C3.5625 4.625 3.5625 4.625 3.375 7.6875 C1.375 9.6875 1.375 9.6875 -1.125 9.9375 C-3.625 9.6875 -3.625 9.6875 -5.625 7.6875 C-5.9375 4.6875 -5.9375 4.6875 -5.625 1.6875 C-2.625 -0.3125 -2.625 -0.3125 0 0 Z " fill="#E0E6ED" transform="translate(93.625,219.3125)"/>
<path d="M0 0 C2.375 0.6875 2.375 0.6875 3.375 1.6875 C3.5625 4.625 3.5625 4.625 3.375 7.6875 C1.375 9.6875 1.375 9.6875 -1.125 9.9375 C-3.625 9.6875 -3.625 9.6875 -5.625 7.6875 C-5.9375 4.6875 -5.9375 4.6875 -5.625 1.6875 C-2.625 -0.3125 -2.625 -0.3125 0 0 Z " fill="#E0E6ED" transform="translate(238.625,197.3125)"/>
<path d="M0 0 C2.375 0.6875 2.375 0.6875 3.375 1.6875 C3.5625 4.625 3.5625 4.625 3.375 7.6875 C1.375 9.6875 1.375 9.6875 -1.125 9.9375 C-3.625 9.6875 -3.625 9.6875 -5.625 7.6875 C-5.9375 4.6875 -5.9375 4.6875 -5.625 1.6875 C-2.625 -0.3125 -2.625 -0.3125 0 0 Z " fill="#E0E6ED" transform="translate(176.625,197.3125)"/>
<path d="M0 0 C2.375 0.6875 2.375 0.6875 3.375 1.6875 C3.5625 4.625 3.5625 4.625 3.375 7.6875 C1.375 9.6875 1.375 9.6875 -1.125 9.9375 C-3.625 9.6875 -3.625 9.6875 -5.625 7.6875 C-5.9375 4.6875 -5.9375 4.6875 -5.625 1.6875 C-2.625 -0.3125 -2.625 -0.3125 0 0 Z " fill="#E0E6ED" transform="translate(93.625,197.3125)"/>
<path d="M0 0 C2.375 0.6875 2.375 0.6875 3.375 1.6875 C3.5625 4.625 3.5625 4.625 3.375 7.6875 C1.375 9.6875 1.375 9.6875 -1.125 9.9375 C-3.625 9.6875 -3.625 9.6875 -5.625 7.6875 C-5.9375 4.6875 -5.9375 4.6875 -5.625 1.6875 C-2.625 -0.3125 -2.625 -0.3125 0 0 Z " fill="#E0E6ED" transform="translate(93.625,175.3125)"/>
<path d="M0 0 C2.5 0.25 2.5 0.25 4.5 2.25 C4.8125 5.25 4.8125 5.25 4.5 8.25 C1.5 10.25 1.5 10.25 -1.125 9.9375 C-3.5 9.25 -3.5 9.25 -4.5 8.25 C-4.6875 5.3125 -4.6875 5.3125 -4.5 2.25 C-2.5 0.25 -2.5 0.25 0 0 Z " fill="#E0E6ED" transform="translate(237.5,130.75)"/>
<path d="M0 0 C2.5625 0.375 2.5625 0.375 4.4375 2.125 C5.5625 4.375 5.5625 4.375 5.625 6.5 C4.5625 8.375 4.5625 8.375 1.6875 9.75 C0.65625 9.95625 -0.375 10.1625 -1.4375 10.375 C-2.4275 9.715 -3.4175 9.055 -4.4375 8.375 C-4.75 5.375 -4.75 5.375 -4.4375 2.375 C-2.4375 0.375 -2.4375 0.375 0 0 Z " fill="#E0E5EC" transform="translate(154.4375,130.625)"/>
<path d="M0 0 C2.5 0.25 2.5 0.25 4.5 2.25 C4.8125 5.25 4.8125 5.25 4.5 8.25 C1.5 10.25 1.5 10.25 -1.125 9.9375 C-3.5 9.25 -3.5 9.25 -4.5 8.25 C-4.6875 5.3125 -4.6875 5.3125 -4.5 2.25 C-2.5 0.25 -2.5 0.25 0 0 Z " fill="#E0E6ED" transform="translate(92.5,130.75)"/>
<path d="M0 0 C2.5 0.25 2.5 0.25 4.5 2.25 C4.8125 5.25 4.8125 5.25 4.5 8.25 C1.5 10.25 1.5 10.25 -1.125 9.9375 C-3.5 9.25 -3.5 9.25 -4.5 8.25 C-4.6875 5.3125 -4.6875 5.3125 -4.5 2.25 C-2.5 0.25 -2.5 0.25 0 0 Z " fill="#E0E6ED" transform="translate(237.5,108.75)"/>
<path d="M0 0 C2.5 0.25 2.5 0.25 4.5 2.25 C4.8125 5.25 4.8125 5.25 4.5 8.25 C1.5 10.25 1.5 10.25 -1.125 9.9375 C-3.5 9.25 -3.5 9.25 -4.5 8.25 C-4.6875 5.3125 -4.6875 5.3125 -4.5 2.25 C-2.5 0.25 -2.5 0.25 0 0 Z " fill="#E0E6ED" transform="translate(175.5,108.75)"/>
<path d="M0 0 C2.5 0.25 2.5 0.25 4.5 2.25 C4.8125 5.25 4.8125 5.25 4.5 8.25 C1.5 10.25 1.5 10.25 -1.125 9.9375 C-3.5 9.25 -3.5 9.25 -4.5 8.25 C-4.6875 5.3125 -4.6875 5.3125 -4.5 2.25 C-2.5 0.25 -2.5 0.25 0 0 Z " fill="#E0E6ED" transform="translate(92.5,108.75)"/>
<path d="M0 0 C0.99 0.103125 1.98 0.20625 3 0.3125 C5 3.3125 5 3.3125 4.6875 5.9375 C4 8.3125 4 8.3125 3 9.3125 C0.0625 9.5 0.0625 9.5 -3 9.3125 C-5 7.3125 -5 7.3125 -5.25 4.8125 C-4.86676958 0.9801958 -3.75087075 0.3907157 0 0 Z " fill="#E0E6ED" transform="translate(217,64.6875)"/>
<path d="M0 0 C3.0625 0.1875 3.0625 0.1875 5.0625 2.1875 C5.3125 4.6875 5.3125 4.6875 5.0625 7.1875 C3.0625 9.1875 3.0625 9.1875 0.0625 9.5 C-0.9275 9.396875 -1.9175 9.29375 -2.9375 9.1875 C-4.9375 6.1875 -4.9375 6.1875 -4.625 3.5625 C-3.63731654 0.1505026 -3.65603948 0.23336422 0 0 Z " fill="#E0E6ED" transform="translate(112.9375,64.8125)"/>
<path d="M0 0 C0.99 0.103125 1.98 0.20625 3 0.3125 C5 3.3125 5 3.3125 4.6875 5.9375 C4 8.3125 4 8.3125 3 9.3125 C0.0625 9.5 0.0625 9.5 -3 9.3125 C-5 7.3125 -5 7.3125 -5.25 4.8125 C-4.86676958 0.9801958 -3.75087075 0.3907157 0 0 Z " fill="#E0E6ED" transform="translate(72,64.6875)"/>
<path d="M0 0 C0.99 0.103125 1.98 0.20625 3 0.3125 C5 3.3125 5 3.3125 4.6875 5.9375 C4 8.3125 4 8.3125 3 9.3125 C0.0625 9.5 0.0625 9.5 -3 9.3125 C-5 7.3125 -5 7.3125 -5.25 4.8125 C-4.86676958 0.9801958 -3.75087075 0.3907157 0 0 Z " fill="#E0E6ED" transform="translate(217,42.6875)"/>
<path d="M0 0 C3.0625 0.1875 3.0625 0.1875 5.0625 2.1875 C5.3125 4.6875 5.3125 4.6875 5.0625 7.1875 C3.0625 9.1875 3.0625 9.1875 0.0625 9.5 C-0.9275 9.396875 -1.9175 9.29375 -2.9375 9.1875 C-4.9375 6.1875 -4.9375 6.1875 -4.625 3.5625 C-3.63731654 0.1505026 -3.65603948 0.23336422 0 0 Z " fill="#E0E6ED" transform="translate(112.9375,42.8125)"/>
<path d="M0 0 C0.99 0.103125 1.98 0.20625 3 0.3125 C5 3.3125 5 3.3125 4.6875 5.9375 C4 8.3125 4 8.3125 3 9.3125 C0.0625 9.5 0.0625 9.5 -3 9.3125 C-5 7.3125 -5 7.3125 -5.25 4.8125 C-4.86676958 0.9801958 -3.75087075 0.3907157 0 0 Z " fill="#E0E6ED" transform="translate(72,42.6875)"/>
<path d="M0 0 C3.1875 0.875 3.1875 0.875 6 2 C6.125 4.875 6.125 4.875 6 8 C5.34 8.66 4.68 9.32 4 10 C0.375 9.625 0.375 9.625 -3 9 C-3.1875 5.625 -3.1875 5.625 -3 2 C-2.01 1.34 -1.02 0.68 0 0 Z " fill="#E0E6ED" transform="translate(174,20)"/>
<path d="M0 0 C3.5 0.125 3.5 0.125 4.5 1.125 C4.6875 4.0625 4.6875 4.0625 4.5 7.125 C2.5 9.125 2.5 9.125 -0.5625 9.3125 C-3.5 9.125 -3.5 9.125 -4.5 8.125 C-4.625 4.625 -4.625 4.625 -4.5 1.125 C-3.5 0.125 -3.5 0.125 0 0 Z " fill="#E0E6ED" transform="translate(175.5,241.875)"/>
<path d="M0 0 C2 2 2 2 2.125 5.125 C2.08375 6.07375 2.0425 7.0225 2 8 C-0.25 9.125 -0.25 9.125 -3 10 C-5.3125 9.125 -5.3125 9.125 -7 8 C-7 5.69 -7 3.38 -7 1 C-4.48718205 -0.25640898 -2.78302919 -0.20872719 0 0 Z " fill="#E0E6ED" transform="translate(178,87)"/>
<path d="M0 0 C2.9375 0.1875 2.9375 0.1875 3.9375 1.1875 C4.0625 4.6875 4.0625 4.6875 3.9375 8.1875 C2.9375 9.1875 2.9375 9.1875 -0.5625 9.3125 C-4.0625 9.1875 -4.0625 9.1875 -5.0625 8.1875 C-5.25 5.25 -5.25 5.25 -5.0625 2.1875 C-3.0625 0.1875 -3.0625 0.1875 0 0 Z " fill="#E0E6ED" transform="translate(238.0625,64.8125)"/>
<path d="M0 0 C3.0625 0.1875 3.0625 0.1875 5.0625 2.1875 C5.25 5.25 5.25 5.25 5.0625 8.1875 C4.0625 9.1875 4.0625 9.1875 0.5625 9.3125 C-2.9375 9.1875 -2.9375 9.1875 -3.9375 8.1875 C-4.0625 4.6875 -4.0625 4.6875 -3.9375 1.1875 C-2.9375 0.1875 -2.9375 0.1875 0 0 Z " fill="#E0E6ED" transform="translate(174.9375,64.8125)"/>
<path d="M0 0 C0.94875 0.04125 1.8975 0.0825 2.875 0.125 C4 2.9375 4 2.9375 4.875 6.125 C3.885 7.61 3.885 7.61 2.875 9.125 C-0.125 9.4375 -0.125 9.4375 -3.125 9.125 C-5.125 7.125 -5.125 7.125 -5.375 4.625 C-4.98192433 0.69424327 -3.8631953 0.15452781 0 0 Z " fill="#E0E6ED" transform="translate(155.125,64.875)"/>
<path d="M0 0 C2.875 -0.125 2.875 -0.125 6 0 C6.66 0.66 7.32 1.32 8 2 C7.625 5.625 7.625 5.625 7 9 C4.69 9 2.38 9 0 9 C-1.125 6.75 -1.125 6.75 -2 4 C-1.125 1.6875 -1.125 1.6875 0 0 Z " fill="#E0E6ED" transform="translate(27,65)"/>
<path d="M0 0 C3.5 0.125 3.5 0.125 4.5 1.125 C4.6875 4.0625 4.6875 4.0625 4.5 7.125 C2.5 9.125 2.5 9.125 -0.5625 9.3125 C-3.5 9.125 -3.5 9.125 -4.5 8.125 C-4.625 4.625 -4.625 4.625 -4.5 1.125 C-3.5 0.125 -3.5 0.125 0 0 Z " fill="#E0E6ED" transform="translate(175.5,42.875)"/>
<path d="M0 0 C0.94875 0.04125 1.8975 0.0825 2.875 0.125 C4 2.375 4 2.375 4.875 5.125 C4 7.4375 4 7.4375 2.875 9.125 C0 9.25 0 9.25 -3.125 9.125 C-5.125 7.125 -5.125 7.125 -5.375 4.625 C-4.98192433 0.69424327 -3.8631953 0.15452781 0 0 Z " fill="#E0E6ED" transform="translate(155.125,42.875)"/>
<path d="M0 0 C2.5625 0.5625 2.5625 0.5625 5 2 C6.3125 4.625 6.3125 4.625 7 7 C5.18887927 9.28773145 4.39279457 9.95209822 1.4375 10.3125 C-1 10 -1 10 -3 8 C-3.3125 5 -3.3125 5 -3 2 C-2.01 1.34 -1.02 0.68 0 0 Z " fill="#E0E2EA" transform="translate(70,175)"/>
<path d="M0 0 C3.625 0.375 3.625 0.375 7 1 C7.625 3.875 7.625 3.875 8 7 C7.34 7.66 6.68 8.32 6 9 C3.27130593 8.96712417 0.7033382 8.43602229 -2 8 C-2.125 5.125 -2.125 5.125 -2 2 C-1.34 1.34 -0.68 0.68 0 0 Z " fill="#E0E5EC" transform="translate(69,131)"/>
<path d="M0 0 C2.5 0.25 2.5 0.25 4.5 2.25 C4.625 5.375 4.625 5.375 4.5 8.25 C2.25 9.375 2.25 9.375 -0.5 10.25 C-2.8125 9.375 -2.8125 9.375 -4.5 8.25 C-4.625 5.375 -4.625 5.375 -4.5 2.25 C-2.5 0.25 -2.5 0.25 0 0 Z " fill="#E0E6ED" transform="translate(237.5,86.75)"/>
<path d="M0 0 C2.5 0.25 2.5 0.25 4.5 2.25 C4.625 5.375 4.625 5.375 4.5 8.25 C2.25 9.375 2.25 9.375 -0.5 10.25 C-2.8125 9.375 -2.8125 9.375 -4.5 8.25 C-4.625 5.375 -4.625 5.375 -4.5 2.25 C-2.5 0.25 -2.5 0.25 0 0 Z " fill="#E0E6ED" transform="translate(92.5,86.75)"/>
<path d="M0 0 C1.11375 0.556875 1.11375 0.556875 2.25 1.125 C2.375 4 2.375 4 2.25 7.125 C0.25 9.125 0.25 9.125 -2.25 9.375 C-4.75 9.125 -4.75 9.125 -6.75 7.125 C-6.875 4 -6.875 4 -6.75 1.125 C-4.02098495 -0.69434337 -3.21400584 -1.02263822 0 0 Z " fill="#E0E6ED" transform="translate(94.75,20.875)"/>
<path d="M0 0 C2 2 2 2 2.125 5.125 C2.08375 6.07375 2.0425 7.0225 2 8 C-0.64 8.33 -3.28 8.66 -6 9 C-8 6 -8 6 -7.75 3.375 C-7.5025 2.59125 -7.255 1.8075 -7 1 C-4.48718205 -0.25640898 -2.78302919 -0.20872719 0 0 Z " fill="#E0E5EC" transform="translate(116,131)"/>
<path d="M0 0 C0.99 0.33 1.98 0.66 3 1 C4.32278481 6.41139241 4.32278481 6.41139241 2.9375 8.9375 C0.08906752 10.49954362 -1.93504903 9.74921024 -5 9 C-4.42647107 5.12867972 -2.51295648 2.91827204 0 0 Z " fill="#E0E3EB" transform="translate(197,153)"/>
<path d="M0 0 C5.875 0.875 5.875 0.875 7 2 C7.04080783 3.99958364 7.04254356 6.00045254 7 8 C5.02 8.99 5.02 8.99 3 10 C-1.06153846 4.58461538 -1.06153846 4.58461538 -0.75 1.625 C-0.5025 1.08875 -0.255 0.5525 0 0 Z " fill="#E0E1EA" transform="translate(173,175)"/>
<path d="M0 0 C0.99 0.33 1.98 0.66 3 1 C3.875 2.8125 3.875 2.8125 4 5 C2.875 7.25 2.875 7.25 1 9 C-1.6875 9.25 -1.6875 9.25 -4 9 C-3.46930939 5.17902761 -2.50298434 2.93828597 0 0 Z " fill="#E0E1EA" transform="translate(156,176)"/>
<path d="M0 0 C0.78375 0.04125 1.5675 0.0825 2.375 0.125 C3.035 1.445 3.695 2.765 4.375 4.125 C2.375 6.125 2.375 6.125 -0.75 6.25 C-2.173125 6.188125 -2.173125 6.188125 -3.625 6.125 C-4.25 4.25 -4.25 4.25 -4.625 2.125 C-2.625 0.125 -2.625 0.125 0 0 Z " fill="#E0E2EB" transform="translate(92.625,152.875)"/>
<path d="M0 0 C0.66 0 1.32 0 2 0 C2.99 2.97 3.98 5.94 5 9 C4.01 9.33 3.02 9.66 2 10 C-0.0625 8.3125 -0.0625 8.3125 -2 6 C-1.7 1.7 -1.7 1.7 0 0 Z " fill="#E0E6ED" transform="translate(255,87)"/>
<path d="M0 0 C1.32 0 2.64 0 4 0 C3.01 3.3 2.02 6.6 1 10 C-0.32 9.01 -1.64 8.02 -3 7 C-2.25 2.25 -2.25 2.25 0 0 Z " fill="#E0E6ED" transform="translate(256,175)"/>
<path d="M0 0 C2.375 0.1875 2.375 0.1875 5 1 C6.3125 3.5625 6.3125 3.5625 7 6 C5.68 7.32 4.36 8.64 3 10 C0 3.375 0 3.375 0 0 Z " fill="#E0E6ED" transform="translate(8,175)"/>
<path d="M0 0 C0.99 0.33 1.98 0.66 3 1 C4.09405974 3.4405948 4.1165418 4.62918518 3.3125 7.1875 C2 9 2 9 -0.125 9.75 C-1.053125 9.87375 -1.053125 9.87375 -2 10 C-3.39195915 5.82412255 -1.82323219 3.86525224 0 0 Z " fill="#E0E6ED" transform="translate(11,87)"/>
<path d="M0 0 C3.16115776 1.36983503 3.9927092 1.9890638 6 5 C6 5.99 6 6.98 6 8 C3.625 7.8125 3.625 7.8125 1 7 C-0.375 4.5625 -0.375 4.5625 -1 2 C-0.67 1.34 -0.34 0.68 0 0 Z " fill="#E0E3EB" transform="translate(26,177)"/>
<path d="M0 0 C2.00720923 0.28674418 4.0085944 0.61866701 6 1 C6.33 2.65 6.66 4.3 7 6 C4.125 5.75 4.125 5.75 1 5 C-0.375 2.9375 -0.375 2.9375 -1 1 C-0.67 0.67 -0.34 0.34 0 0 Z " fill="#E1DDE7" transform="translate(132,153)"/>
<path d="M0 0 C1.98 0 3.96 0 6 0 C6.66 1.32 7.32 2.64 8 4 C4.7 4 1.4 4 -2 4 C-1.34 2.68 -0.68 1.36 0 0 Z " fill="#E0E6ED" transform="translate(131,264)"/>
<path d="M0 0 C3.71368887 1.23789629 4.77354181 2.85224877 7 6 C7 6.66 7 7.32 7 8 C4.625 8.125 4.625 8.125 2 8 C0 6 0 6 -0.125 2.875 C-0.08375 1.92625 -0.0425 0.9775 0 0 Z " fill="#E0E0E9" transform="translate(171,155)"/>
<path d="M0 0 C3.3 0 6.6 0 10 0 C9.34 1.32 8.68 2.64 8 4 C6.02 4 4.04 4 2 4 C1.34 2.68 0.68 1.36 0 0 Z " fill="#E0E6ED" transform="translate(129,4)"/>
<path d="M0 0 C-1.625 5.75 -1.625 5.75 -5 8 C-5.6875 5.6875 -5.6875 5.6875 -6 3 C-4.0819994 0.21889913 -3.45555657 0 0 0 Z " fill="#E0E0E9" transform="translate(197,175)"/>
<path d="M0 0 C-1.15173355 2.46800047 -2.04783565 4.04783565 -4 6 C-4.99 6 -5.98 6 -7 6 C-6.625 3.5625 -6.625 3.5625 -6 1 C-4 0 -4 0 0 0 Z " fill="#E0E0E9" transform="translate(53,153)"/>
<path d="M0 0 C2.875 -0.125 2.875 -0.125 6 0 C6.66 0.66 7.32 1.32 8 2 C7 3 7 3 4.5625 3.25 C3.2940625 3.12625 3.2940625 3.12625 2 3 C1.34 2.01 0.68 1.02 0 0 Z " fill="#E0E6ED" transform="translate(150,5)"/>
<path d="M0 0 C-0.99 1.485 -0.99 1.485 -2 3 C-4.625 3.1875 -4.625 3.1875 -7 3 C-7.33 2.34 -7.66 1.68 -8 1 C-5.29120665 -0.35439668 -2.99066732 -0.06501451 0 0 Z " fill="#E0E6ED" transform="translate(118,5)"/>
<path d="M0 0 C3.125 -0.1875 3.125 -0.1875 6 0 C6 0.66 6 1.32 6 2 C3.36 2.33 0.72 2.66 -2 3 C-1.34 2.01 -0.68 1.02 0 0 Z " fill="#E0E6ED" transform="translate(152,264)"/>
<path d="M0 0 C2.875 -0.1875 2.875 -0.1875 6 0 C6.66 0.99 7.32 1.98 8 3 C5.36 2.67 2.72 2.34 0 2 C0 1.34 0 0.68 0 0 Z " fill="#E0E6ED" transform="translate(110,264)"/>
</svg>
