<?xml version="1.0" encoding="UTF-8"?>
<svg version="1.1" xmlns="http://www.w3.org/2000/svg" width="250" height="46">
<path d="M0 0 C0.81694231 2.70706344 1.62866494 5.41551396 2.4375 8.125 C2.66759766 8.88554687 2.89769531 9.64609375 3.13476562 10.4296875 C4.37636362 14.60433583 5.39875379 18.67379163 6 23 C2.70929159 23.83714909 -0.58271647 24.66906896 -3.875 25.5 C-4.81214844 25.73847656 -5.74929687 25.97695313 -6.71484375 26.22265625 C-7.61074219 26.44824219 -8.50664062 26.67382812 -9.4296875 26.90625 C-10.25710449 27.11572266 -11.08452148 27.32519531 -11.93701172 27.54101562 C-14 28 -14 28 -16 28 C-16.66 26.02 -17.32 24.04 -18 22 C-15.70370006 20.85185003 -13.92301914 20.69230191 -11.375 20.4375 C-10.14910156 20.31181641 -10.14910156 20.31181641 -8.8984375 20.18359375 C-8.27195313 20.12300781 -7.64546875 20.06242187 -7 20 C-6.67 18.35 -6.34 16.7 -6 15 C-5.01 14.67 -4.02 14.34 -3 14 C-3.350625 12.783125 -3.70125 11.56625 -4.0625 10.3125 C-4.93456352 6.87913104 -5.07703169 4.44650141 -4 1 C-1 0 -1 0 0 0 Z " fill="#484848" transform="translate(243,18)"/>
<path d="M0 0 C-0.25 2.375 -0.25 2.375 -1 5 C-3.48244217 6.71202908 -6.07003641 7.37215066 -9 8 C-10.4606285 5.35261084 -11 4.10551666 -11 1 C-9.5437328 0.63743142 -8.08488815 0.28520207 -6.625 -0.0625 C-5.40683594 -0.35833984 -5.40683594 -0.35833984 -4.1640625 -0.66015625 C-2 -1 -2 -1 0 0 Z " fill="#727272" transform="translate(42,19)"/>
<path d="M0 0 C1.32 0 2.64 0 4 0 C4 0.66 4 1.32 4 2 C6.31 2 8.62 2 11 2 C10.67 4.31 10.34 6.62 10 9 C8.51988629 8.69201674 7.04092675 8.378482 5.5625 8.0625 C4.73878906 7.88847656 3.91507813 7.71445313 3.06640625 7.53515625 C1 7 1 7 0 6 C-0.04080783 4.00041636 -0.04254356 1.99954746 0 0 Z " fill="#696969" transform="translate(176,8)"/>
<path d="M0 0 C0.53625 0.226875 1.0725 0.45375 1.625 0.6875 C1.625 3 1.625 3 0.625 5.6875 C-1.93018097 7.07043093 -4.58366129 7.90541649 -7.375 8.6875 C-7.705 6.7075 -8.035 4.7275 -8.375 2.6875 C-2.95961538 -0.38942308 -2.95961538 -0.38942308 0 0 Z " fill="#6C6C6C" transform="translate(24.375,25.3125)"/>
<path d="M0 0 C-0.33 1.98 -0.66 3.96 -1 6 C-4.3 5.67 -7.6 5.34 -11 5 C-11 3.35 -11 1.7 -11 0 C-3.375 -1.125 -3.375 -1.125 0 0 Z " fill="#B4B4B4" transform="translate(122,4)"/>
<path d="M0 0 C0.33 1.65 0.66 3.3 1 5 C-0.98 5.99 -2.96 6.98 -5 8 C-5 8.66 -5 9.32 -5 10 C-6.32 9.34 -7.64 8.68 -9 8 C-8.8125 5.6875 -8.8125 5.6875 -8 3 C-5.10451959 0.79029126 -3.66842255 0 0 0 Z " fill="#676767" transform="translate(11,32)"/>
<path d="M0 0 C2.97 0.33 5.94 0.66 9 1 C8.67 3.31 8.34 5.62 8 8 C4.65626525 7.44271087 1.96687001 6.64826111 -1 5 C-0.67 3.35 -0.34 1.7 0 0 Z " fill="#595959" transform="translate(208,18)"/>
<path d="M0 0 C0.33 1.65 0.66 3.3 1 5 C-4.445 6.485 -4.445 6.485 -10 8 C-10 6.02 -10 4.04 -10 2 C-8.7090864 1.66376204 -7.41723903 1.33110751 -6.125 1 C-5.40570313 0.814375 -4.68640625 0.62875 -3.9453125 0.4375 C-2 0 -2 0 0 0 Z " fill="#626262" transform="translate(72,9)"/>
<path d="M0 0 C0.33 1.65 0.66 3.3 1 5 C-3.455 6.485 -3.455 6.485 -8 8 C-8.33 6.35 -8.66 4.7 -9 3 C-2.25 0 -2.25 0 0 0 Z " fill="#5E5E5E" transform="translate(56,13)"/>
<path d="M0 0 C4.455 0.99 4.455 0.99 9 2 C9 3.65 9 5.3 9 7 C1.25 6.125 1.25 6.125 -1 5 C-0.67 3.35 -0.34 1.7 0 0 Z " fill="#525252" transform="translate(192,13)"/>
<path d="M0 0 C-0.33 1.65 -0.66 3.3 -1 5 C-3.97 5 -6.94 5 -10 5 C-10.33 3.35 -10.66 1.7 -11 0 C-3.375 -1.125 -3.375 -1.125 0 0 Z " fill="#9E9E9E" transform="translate(105,5)"/>
<path d="M0 0 C3.3 0 6.6 0 10 0 C9.67 1.98 9.34 3.96 9 6 C6.03 6 3.06 6 0 6 C0 4.02 0 2.04 0 0 Z " fill="#5C5C5C" transform="translate(144,4)"/>
<path d="M0 0 C2.97 0.33 5.94 0.66 9 1 C10 4 10 4 9 7 C4.545 6.01 4.545 6.01 0 5 C0 3.35 0 1.7 0 0 Z " fill="#585858" transform="translate(160,6)"/>
<path d="M0 0 C3.3 0 6.6 0 10 0 C10 1.65 10 3.3 10 5 C6.7 5 3.4 5 0 5 C0 3.35 0 1.7 0 0 Z " fill="#A3A3A3" transform="translate(127,4)"/>
<path d="M0 0 C3.73487777 0.4979837 5.81237635 0.87491756 9 3 C8.34 4.65 7.68 6.3 7 8 C4.36 6.68 1.72 5.36 -1 4 C-0.67 2.68 -0.34 1.36 0 0 Z " fill="#515151" transform="translate(223,25)"/>
<path d="M0 0 C0 1.65 0 3.3 0 5 C-6.75 7 -6.75 7 -9 7 C-9.33 5.35 -9.66 3.7 -10 2 C-8.7090864 1.66376204 -7.41723903 1.33110751 -6.125 1 C-5.40570313 0.814375 -4.68640625 0.62875 -3.9453125 0.4375 C-2 0 -2 0 0 0 Z " fill="#555555" transform="translate(88,6)"/>
<path d="M0 0 C2.64 0 5.28 0 8 0 C8 0.99 8 1.98 8 3 C5.36 3 2.72 3 0 3 C0 2.01 0 1.02 0 0 Z " fill="#070707" transform="translate(128,5)"/>
<path d="M0 0 C2.64 0 5.28 0 8 0 C8 0.99 8 1.98 8 3 C5.36 3 2.72 3 0 3 C0 2.01 0 1.02 0 0 Z " fill="#040404" transform="translate(112,5)"/>
<path d="M0 0 C0.33 1.32 0.66 2.64 1 4 C-1.31 4 -3.62 4 -6 4 C-6 3.01 -6 2.02 -6 1 C-4.02 0.67 -2.04 0.34 0 0 Z " fill="#040404" transform="translate(102,5)"/>
<path d="M0 0 C0.99 0.495 0.99 0.495 2 1 C1.01 1.495 1.01 1.495 0 2 C0 1.34 0 0.68 0 0 Z " fill="#FDFDFD" transform="translate(237,30)"/>
<path d="M0 0 C2 1 2 1 2 1 Z " fill="#FCFCFC" transform="translate(242,43)"/>
<path d="M0 0 C2 1 2 1 2 1 Z " fill="#FDFDFD" transform="translate(20,33)"/>
<path d="M0 0 C2 1 2 1 2 1 Z " fill="#FCFCFC" transform="translate(88,11)"/>
<path d="" fill="#FCFCFC" transform="translate(0,0)"/>
<path d="" fill="#FEFEFE" transform="translate(0,0)"/>
<path d="" fill="#FDFDFD" transform="translate(0,0)"/>
<path d="" fill="#FDFDFD" transform="translate(0,0)"/>
<path d="" fill="#FFFFFF" transform="translate(0,0)"/>
<path d="" fill="#FDFDFD" transform="translate(0,0)"/>
<path d="" fill="#FEFEFE" transform="translate(0,0)"/>
<path d="" fill="#FCFCFC" transform="translate(0,0)"/>
<path d="" fill="#FDFDFD" transform="translate(0,0)"/>
<path d="" fill="#FDFDFD" transform="translate(0,0)"/>
<path d="" fill="#FEFEFE" transform="translate(0,0)"/>
<path d="" fill="#FDFDFD" transform="translate(0,0)"/>
<path d="" fill="#FFFFFF" transform="translate(0,0)"/>
<path d="" fill="#FEFEFE" transform="translate(0,0)"/>
<path d="" fill="#FCFCFC" transform="translate(0,0)"/>
<path d="" fill="#FDFDFD" transform="translate(0,0)"/>
<path d="" fill="#FCFCFC" transform="translate(0,0)"/>
<path d="" fill="#FDFDFD" transform="translate(0,0)"/>
<path d="" fill="#FCFCFC" transform="translate(0,0)"/>
<path d="" fill="#FDFDFD" transform="translate(0,0)"/>
<path d="" fill="#FDFDFD" transform="translate(0,0)"/>
<path d="" fill="#FEFEFE" transform="translate(0,0)"/>
<path d="" fill="#FFFFFF" transform="translate(0,0)"/>
</svg>
